<svg xmlns="http://www.w3.org/2000/svg" xmlns:xlink="http://www.w3.org/1999/xlink" width="35.631" height="41.556" viewBox="0 0 35.631 41.556">
  <defs>
    <style>
      .cls-1 {
        opacity: 0.65;
      }

      .cls-2 {
        fill: url(#radial-gradient);
      }
    </style>
    <radialGradient id="radial-gradient" cx="0.5" cy="0.5" r="0.5" gradientUnits="objectBoundingBox">
      <stop offset="0" stop-color="red"/>
      <stop offset="0.046" stop-color="#ff8000"/>
      <stop offset="0.172" stop-color="#fe0"/>
      <stop offset="0.381" stop-color="#31ff00"/>
      <stop offset="0.515" stop-color="#00fff6"/>
      <stop offset="0.682" stop-color="#0019ff"/>
      <stop offset="0.841" stop-color="#ce00ff"/>
      <stop offset="1" stop-color="red"/>
    </radialGradient>
  </defs>
  <g id="Layer_2" data-name="Layer 2" class="cls-1">
    <g id="Layer_2-2" data-name="Layer 2" transform="matrix(1, -0.017, 0.017, 1, 0, 0.609)">
      <g id="Layer_1" data-name="Layer 1" transform="translate(0 0)">
        <path id="Tracé_42" data-name="Tracé 42" class="cls-2" d="M7.218,4.342a2.641,2.641,0,0,1,1.44.44l20.858,13.4a3.169,3.169,0,0,1-.071,5.272L8.241,36.214a2.639,2.639,0,0,1-1.371.4,2.8,2.8,0,0,1-2.046-.93,3.082,3.082,0,0,1-.792-2.171L4.376,7.357A2.962,2.962,0,0,1,7.218,4.342h0M7.218,0A7.131,7.131,0,0,0,.346,7.288L0,33.447a7.151,7.151,0,0,0,6.868,7.505,6.439,6.439,0,0,0,3.339-.944l21.2-12.755a7.686,7.686,0,0,0,.168-12.8L10.72,1.054A6.438,6.438,0,0,0,7.218,0Z"/>
      </g>
    </g>
  </g>
</svg>
