<svg xmlns="http://www.w3.org/2000/svg" width="38.06" height="43.233" viewBox="0 0 38.06 43.233">
  <g id="Composant_1_1" data-name="Composant 1 – 1" transform="translate(0)" opacity="0.65">
    <g id="Layer_1" data-name="Layer 1" transform="translate(0 0)">
      <path id="Tracé_40" data-name="Tracé 40" d="M19.011,43.232h-14A4.88,4.88,0,0,1,.13,39.343a6.382,6.382,0,0,1-.137-1.426q0-10.521,0-21.04A5.171,5.171,0,0,1,1.983,12.66c4.605-3.776,9.175-7.581,13.763-11.37a4.793,4.793,0,0,1,6.507-.034Q29.3,7.02,36.324,12.82a4.77,4.77,0,0,1,1.722,3.837q.014,10.657,0,21.31a4.931,4.931,0,0,1-4.99,5.261ZM18.976,40.3H32.84a2.005,2.005,0,0,0,2.217-2.1V16.7a2.077,2.077,0,0,0-.794-1.679L20.437,3.587a2.125,2.125,0,0,0-2.83,0Q10.728,9.277,3.845,14.963a2.227,2.227,0,0,0-.864,1.828q.011,10.657.011,21.312a2.741,2.741,0,0,0,.036.535A2.005,2.005,0,0,0,5.208,40.3Q12.09,40.3,18.976,40.3Z" transform="translate(0.008 0.001)" fill="#afafaf"/>
      <path id="Tracé_41" data-name="Tracé 41" d="M84.639,286.086H76.209a1.481,1.481,0,0,1-1.6-1.588,1.453,1.453,0,0,1,1.042-1.319,2.591,2.591,0,0,1,.8-.089h16.5a3.019,3.019,0,0,1,.665.062,1.437,1.437,0,0,1,1.157,1.579,1.49,1.49,0,0,1-1.39,1.344c-.163.014-.329.008-.493.008Z" transform="translate(-65.661 -249.146)" fill="#afafaf"/>
    </g>
  </g>
</svg>
